<svg width="63" height="52" viewBox="0 0 63 52" fill="none" xmlns="http://www.w3.org/2000/svg">
<path d="M14.6982 12.7284C14.6982 12.7284 17.3545 6.99177 20.8481 5.05985C23.9946 3.31991 30.4865 3.25547 30.4865 3.25547M14.6982 12.7284L13.796 8.6686M14.6982 12.7284L18.7581 10.9241M30.4865 3.25547L26.4267 1M30.4865 3.25547L26.8778 5.96203M52.139 37.0875C52.139 37.0875 49.7181 42.0496 46.2749 44.3408C43.2815 46.3327 36.3507 46.5605 36.3507 46.5605M52.139 37.0875L53.0412 41.1474M52.139 37.0875L48.0792 38.8919M36.3507 46.5605L40.4106 48.816M36.3507 46.5605L39.9595 43.8539M46.2749 12.7284C43.2749 12.7143 41.1109 14.7009 40.8617 17.6905C40.5928 20.918 43.0361 23.5497 46.2749 23.5547C49.3915 23.5595 51.688 21.2582 51.688 18.1416C51.688 15.0249 49.3915 12.7432 46.2749 12.7284ZM1.38395 29.9641L4.97509 32.4848C5.18602 32.6329 5.32356 32.864 5.35304 33.1201L5.76769 36.7215C5.80677 37.061 5.6507 37.3934 5.36454 37.5802L1.43236 40.1468C1.01511 40.4191 0.897631 40.9781 1.16997 41.3954L4.10893 45.8981C4.38127 46.3154 4.94029 46.4328 5.35754 46.1605L9.31822 43.5753C9.58933 43.3984 9.93448 43.3802 10.2226 43.5278L12.8538 44.8756C13.2018 45.0538 13.3954 45.4359 13.3332 45.8219L12.756 49.4075C12.673 49.9231 13.0438 50.4013 13.5639 50.4493L19.4958 50.9961C19.975 51.0403 20.4045 50.7006 20.4719 50.2241L21.058 46.0814C21.0945 45.8238 21.2403 45.5945 21.4582 45.4523L25.0331 43.1189C25.2709 42.9637 25.5679 42.9295 25.8348 43.0266L29.4461 44.3408C29.8891 44.502 30.3815 44.295 30.5762 43.8656L32.6575 39.2766C32.8485 38.8556 32.6903 38.3583 32.2911 38.125L28.5111 35.916C28.2226 35.7474 28.0509 35.4331 28.0649 35.0992L28.2078 31.6971C28.2201 31.406 28.3721 31.1387 28.6161 30.9795L32.1969 28.6423C32.6141 28.3699 32.7316 27.8109 32.4592 27.3936L29.5203 22.8909C29.248 22.4737 28.6889 22.3562 28.2717 22.6286L24.7209 24.9462C24.4604 25.1162 24.1307 25.1401 23.8484 25.0093L20.3705 23.3977C20.0853 23.2656 19.8895 22.9945 19.8535 22.6823L19.355 18.3524C19.2995 17.8699 18.8718 17.5179 18.3876 17.5562L13.6712 17.9293C13.2053 17.9661 12.8447 18.3526 12.8401 18.8199L12.7989 23.0597C12.796 23.3614 12.6425 23.6416 12.3899 23.8065L8.86821 26.1051C8.63507 26.2573 8.34473 26.2933 8.08148 26.2027L3.76145 24.7158C3.31447 24.562 2.82452 24.7792 2.63847 25.2138L1.0729 28.8706C0.904984 29.2628 1.03475 29.719 1.38395 29.9641ZM13.7305 29.6695C10.8651 31.5205 10.0391 34.7573 11.66 37.759C13.4099 40.9995 17.3723 41.9869 20.4594 39.9787C23.4302 38.0461 24.1867 34.4274 22.2496 31.4596C20.3125 28.4918 16.7074 27.7464 13.7305 29.6695ZM41.4324 4.44027L43.7191 7.38035C43.9086 7.62394 44.1999 7.76641 44.5085 7.76641H47.9951C48.3295 7.76641 48.6417 7.59931 48.8272 7.32111L50.7293 4.46793C51.0166 4.03696 51.5855 3.89671 52.0402 4.14474L55.3518 5.95107C55.8245 6.20888 56.0082 6.79463 55.7674 7.27618L54.1943 10.4224C54.0385 10.734 54.0561 11.1042 54.2407 11.3997L55.9052 14.0628C56.0879 14.3552 56.4084 14.5328 56.7532 14.5328H60.161C60.7132 14.5328 61.161 14.9805 61.161 15.5328V19.8481C61.161 20.4004 60.7132 20.8481 60.161 20.8481H56.7135C56.3906 20.8481 56.0875 21.0041 55.8998 21.2669L54.2934 23.5159C54.0781 23.8173 54.0471 24.213 54.2127 24.5443L55.7956 27.7101C56.0248 28.1684 55.8704 28.7258 55.438 29.0009L52.0182 31.1772C51.5773 31.4578 50.9948 31.3516 50.6813 30.9336L48.8303 28.4656C48.6415 28.2138 48.3451 28.0656 48.0303 28.0656H44.4732C44.1848 28.0656 43.9105 28.1901 43.7206 28.4071L41.4635 30.9867C41.1227 31.3761 40.5412 31.4413 40.1227 31.1369L36.6761 28.6303C36.2423 28.3148 36.1347 27.7132 36.4322 27.2669L38.2634 24.52C38.4735 24.2049 38.4876 23.7981 38.2996 23.4692L37.0898 21.352C36.9118 21.0404 36.5804 20.8481 36.2216 20.8481H32.3888C31.8365 20.8481 31.3888 20.4004 31.3888 19.8481V15.5328C31.3888 14.9805 31.8365 14.5328 32.3888 14.5328H36.1839C36.5626 14.5328 36.9089 14.3188 37.0783 13.98L38.4054 11.3257C38.5332 11.0702 38.5456 10.7723 38.4395 10.5071L37.1032 7.16649C36.9276 6.72742 37.0835 6.22536 37.477 5.96305L40.0883 4.22216C40.5243 3.93151 41.1107 4.02667 41.4324 4.44027Z" stroke="white" stroke-width="2" stroke-linecap="round"/>
</svg>
