<svg width="50" height="50" viewBox="0 0 50 50" fill="none" xmlns="http://www.w3.org/2000/svg">
<path d="M25.2947 13.7291C24.8072 13.9921 24.5033 14.4922 24.5033 15.0361L24.5033 23.5058L7.77978 23.5058C6.93534 23.5058 6.25 24.1753 6.25 25.0001C6.25 25.825 6.93534 26.4944 7.77978 26.4944L24.5033 26.4944L24.5033 34.9641C24.5033 35.51 24.8072 36.0101 25.2947 36.2711C25.7822 36.5361 26.3778 36.5182 26.849 36.2293L43.0361 26.2653C43.4808 25.9903 43.75 25.5141 43.75 25.0001C43.75 24.4861 43.4808 24.0099 43.0361 23.7349L26.849 13.771C26.6002 13.6195 26.3166 13.5418 26.0331 13.5418C25.7802 13.5418 25.5252 13.6056 25.2947 13.7291Z" fill="white"/>
</svg>
