<svg width="28" height="28" viewBox="0 0 28 28" fill="none" xmlns="http://www.w3.org/2000/svg">
<path fill-rule="evenodd" clip-rule="evenodd" d="M2.73791 5.09067C3.13332 4.43598 5.31187 2.05471 6.86652 2.12659C7.33125 2.1651 7.74205 2.44624 8.07583 2.7723C8.84224 3.5207 11.0362 6.35127 11.1607 6.94691C11.4637 8.40776 9.72291 9.24988 10.2557 10.7223C11.6139 14.0458 13.9542 16.386 17.2792 17.7429C18.7504 18.2756 19.5925 16.5349 21.0535 16.8391C21.6479 16.9637 24.4799 19.1575 25.2283 19.9239C25.5531 20.2564 25.8355 20.6684 25.874 21.1331C25.9318 22.7699 23.4028 24.9791 22.9098 25.2615C21.7467 26.0934 20.2293 26.0793 18.3794 25.2192C13.2173 23.0715 4.96782 14.9778 2.78028 9.62087C1.94326 7.78132 1.88549 6.25371 2.73791 5.09067Z" stroke="#286382" stroke-width="2.5" stroke-linecap="round" stroke-linejoin="round"/>
</svg>
