<svg width="50" height="30" viewBox="0 0 50 30" fill="none" xmlns="http://www.w3.org/2000/svg">
<path d="M48.8605 2.03437C49.2039 0.8625 48.8605 0 47.2083 0H41.7412C40.3489 0 39.7084 0.740625 39.365 1.56562C39.365 1.56562 36.5804 8.41875 32.6448 12.8625C31.3732 14.1469 30.7884 14.5594 30.0923 14.5594C29.7488 14.5594 29.2197 14.1469 29.2197 12.975V2.03437C29.2197 0.628125 28.8299 0 27.6789 0H19.0838C18.2113 0 17.6915 0.65625 17.6915 1.26562C17.6915 2.59687 19.6593 2.90625 19.8635 6.65625V14.7938C19.8635 16.575 19.5479 16.9031 18.8517 16.9031C16.9953 16.9031 12.4843 10.0219 9.81108 2.14688C9.27272 0.61875 8.74365 0 7.34206 0H1.87496C0.315588 0 3.5408e-08 0.740625 3.5408e-08 1.56562C3.5408e-08 3.02812 1.8564 10.2938 8.64155 19.8938C13.1619 26.4469 19.5293 30 25.3213 30C28.8021 30 29.229 29.2125 29.229 27.8531C29.229 21.5906 28.9134 21 30.6585 21C31.466 21 32.8583 21.4125 36.107 24.5719C39.8198 28.3219 40.4324 30 42.5116 30H47.9787C49.5381 30 50.327 29.2125 49.8722 27.6562C48.8326 24.3844 41.8061 17.6531 41.4906 17.2031C40.683 16.1531 40.9151 15.6844 41.4906 14.7469C41.4998 14.7375 48.1736 5.25 48.8605 2.03437Z" fill="#286382"/>
</svg>
